<svg width="24" height="24" viewBox="0 0 24 24" fill="none" xmlns="http://www.w3.org/2000/svg">
<path d="M4.28571 14.5714C3.57857 14.5714 3 15.15 3 15.8571V19.7143C3 20.4214 3.57857 21 4.28571 21H8.14286C8.85 21 9.42857 20.4214 9.42857 19.7143C9.42857 19.0071 8.85 18.4286 8.14286 18.4286H5.57143V15.8571C5.57143 15.15 4.99286 14.5714 4.28571 14.5714ZM4.28571 9.42857C4.99286 9.42857 5.57143 8.85 5.57143 8.14286V5.57143H8.14286C8.85 5.57143 9.42857 4.99286 9.42857 4.28571C9.42857 3.57857 8.85 3 8.14286 3H4.28571C3.57857 3 3 3.57857 3 4.28571V8.14286C3 8.85 3.57857 9.42857 4.28571 9.42857ZM18.4286 18.4286H15.8571C15.15 18.4286 14.5714 19.0071 14.5714 19.7143C14.5714 20.4214 15.15 21 15.8571 21H19.7143C20.4214 21 21 20.4214 21 19.7143V15.8571C21 15.15 20.4214 14.5714 19.7143 14.5714C19.0071 14.5714 18.4286 15.15 18.4286 15.8571V18.4286ZM14.5714 4.28571C14.5714 4.99286 15.15 5.57143 15.8571 5.57143H18.4286V8.14286C18.4286 8.85 19.0071 9.42857 19.7143 9.42857C20.4214 9.42857 21 8.85 21 8.14286V4.28571C21 3.57857 20.4214 3 19.7143 3H15.8571C15.15 3 14.5714 3.57857 14.5714 4.28571Z" fill="#505050"/>
</svg>
