<svg xmlns="http://www.w3.org/2000/svg" width="48" height="48" viewBox="0 0 48 48" fill="none">
  <path d="M4.423 13.0507H9.9822L38.4077 41.5176H30.0732L4.423 15.8204V13.0507Z" fill="white" fill-opacity="0.15"/>
  <path fill-rule="evenodd" clip-rule="evenodd" d="M5.75384 8.73957L42.726 45.7933H6.60185C2.99182 45.7933 0.065295 42.8615 0.065295 39.2448V15.2336C0.065295 11.9048 2.54441 9.1561 5.75384 8.73957ZM31.2717 34.3041L38.3821 41.4276H6.60185C5.39851 41.4276 4.423 40.4503 4.423 39.2448V15.8204V15.2336C4.423 14.028 5.39851 13.0507 6.60185 13.0507H9.9822L15.8913 18.8957C14.1806 20.8223 13.1384 23.3631 13.1384 26.1477C13.1384 32.1756 18.0159 37.0619 24.0326 37.0619C26.8113 37.0619 29.3486 36.0177 31.2717 34.3041ZM17.4961 26.1477C17.4961 24.5704 18.0517 23.123 18.9811 21.9912L28.1816 31.2084C27.0519 32.1399 25.608 32.6962 24.0326 32.6962C20.4225 32.6962 17.4961 29.7645 17.4961 26.1477ZM17.4961 2.13653C16.2928 2.13653 15.3172 3.11383 15.3172 4.31937C15.3172 5.52491 16.2928 6.50221 17.4961 6.50221H30.4158C31.1444 6.50221 31.8247 6.86696 32.2288 7.47422L35.2927 12.0787C35.6969 12.686 36.3771 13.0507 37.1058 13.0507H41.4635C42.6668 13.0507 43.6423 14.028 43.6423 15.2336V32.6962C43.6423 33.9018 44.6178 34.8791 45.8211 34.8791C47.0245 34.8791 48 33.9018 48 32.6962V15.2336C48 11.6169 45.0736 8.68504 41.4635 8.68504H38.2719L35.8547 5.05258C34.6423 3.23079 32.6014 2.13653 30.4158 2.13653H17.4961Z" fill="white" fill-opacity="0.75"/>
  <path d="M0.630576 3.68198C-0.210189 2.83968 -0.210193 1.47403 0.630572 0.631728C1.47134 -0.210576 2.83449 -0.210576 3.67525 0.631728L47.2818 44.318C48.1225 45.1603 48.1225 46.526 47.2818 47.3683C46.441 48.2106 45.0779 48.2106 44.2371 47.3683L0.630576 3.68198Z" fill="white" fill-opacity="0.75"/>
</svg>