<svg xmlns="http://www.w3.org/2000/svg" width="32" height="32" viewBox="0 0 32 32" fill="none">
  <path d="M3.35964 30.2779H28.6404C31.2255 30.2779 32.837 27.4746 31.5445 25.2419L18.9041 3.40247C17.6115 1.16984 14.3885 1.16984 13.0959 3.40247L0.455542 25.2419C-0.837032 27.4746 0.774488 30.2779 3.35964 30.2779ZM16 18.5273C15.0767 18.5273 14.3213 17.7719 14.3213 16.8486V13.4913C14.3213 12.568 15.0767 11.8126 16 11.8126C16.9233 11.8126 17.6787 12.568 17.6787 13.4913V16.8486C17.6787 17.7719 16.9233 18.5273 16 18.5273ZM17.6787 25.2419H14.3213V21.8846H17.6787V25.2419Z" fill="white" fill-opacity="0.75"/>
</svg>