<svg xmlns="http://www.w3.org/2000/svg" width="48" height="48" viewBox="0 0 48 48" fill="none">
    <path d="M0.0218004 14.3897C-0.0759169 11.8491 0.116877 9.06626 1.5932 6.54408C3.9886 2.45276 7.53019 0.20965 12.3183 0.0385205C13.3721 0.00166187 14.4259 0.0437861 15.4796 0.0253567C16.5228 0.0069274 17.2306 0.443966 17.2253 1.52603C17.2174 2.62389 16.4462 2.97668 15.4374 3.00564C13.9478 3.04777 12.4557 2.90297 10.9688 3.17414C6.53717 3.9824 3.29137 7.60771 3.08273 12.1045C3.0035 13.8526 3.04312 15.606 3.05368 17.3568C3.05896 18.4178 2.70771 19.2129 1.52189 19.2129C0.402106 19.2129 0.0482105 18.4178 0.0244414 17.4411C0.00331335 16.5222 0.0191594 15.6034 0.0191594 14.3923L0.0218004 14.3897Z" fill="#CCEEDC"/>
    <path d="M47.9827 14.2581C47.9827 15.0479 47.9695 15.8377 47.9853 16.6276C48.0064 17.6649 47.7238 18.5126 46.5143 18.5389C45.302 18.5653 44.9851 17.7517 44.9851 16.696C44.9851 15.2059 44.993 13.7131 44.9323 12.2229C44.7157 7.02851 40.6539 3.09779 35.4458 3.01091C34.1702 2.98985 32.8919 3.01618 31.619 2.98195C30.7474 2.95826 30.2034 2.45276 30.1347 1.60502C30.0687 0.81782 30.4913 0.120138 31.2888 0.0938103C34.6192 -0.014133 37.9917 -0.324799 41.0975 1.36807C45.5344 3.78757 47.8163 7.52083 47.9827 12.5468C48.0011 13.1155 47.9827 13.6868 47.9853 14.2581H47.9827Z" fill="#CCEEDC"/>
    <path d="M13.7419 47.9785C6.43158 48.3655 1.55628 43.4659 0.391593 38.3321C-0.0705835 36.2969 -0.0362504 34.2355 0.0588259 32.1793C0.0984411 31.3078 0.64513 30.6839 1.61174 30.7392C2.55458 30.7918 3.01412 31.4026 3.04053 32.3136C3.07222 33.4088 3.0326 34.5066 3.06694 35.6019C3.22276 40.7173 7.0575 44.648 12.1573 44.9166C13.4303 44.9824 14.7085 44.9692 15.9841 44.9903C16.9771 45.0061 17.6189 45.4826 17.6163 46.4831C17.6163 47.4783 16.9719 47.9653 15.9841 47.9759C15.2367 47.9838 14.4867 47.9759 13.7393 47.9785H13.7419Z" fill="#CCEEDC"/>
    <path d="M47.9773 34.1643C48.3339 40.8674 44.4331 45.3167 40.1256 47.057C38.1264 47.8652 36.0505 48.0759 33.9245 47.9732C32.9949 47.9284 32.4324 47.4308 32.4191 46.4962C32.4059 45.551 32.9685 45.0508 33.8981 45.0034C35.517 44.9218 37.1465 45.0087 38.6968 44.3689C42.455 42.8209 44.5863 40.0696 44.9111 36.0125C45.0194 34.6619 44.9745 33.3008 44.9983 31.9423C45.0168 30.9418 45.5238 30.3521 46.5327 30.3732C47.4808 30.3942 47.9324 31.0182 47.9694 31.9239C48.0011 32.7111 47.9747 33.5009 47.9747 34.1643H47.9773Z" fill="#CCEEDC"/>
    <path d="M24.1581 35.802C21.8657 35.7678 19.5549 35.1149 17.5952 33.4325C16.9218 32.856 16.4886 32.1846 17.133 31.4132C17.7563 30.6655 18.4905 30.8788 19.2142 31.4395C22.4283 33.9354 26.6169 33.9407 29.7676 31.4632C30.4701 30.9104 31.1938 30.6471 31.8567 31.3922C32.5433 32.1636 32.1181 32.8349 31.4579 33.4062C29.4322 35.1649 27.0316 35.8152 24.1608 35.8047L24.1581 35.802Z" fill="#CCEEDC"/>
    <path d="M26.9048 21.5535C26.9048 22.733 26.9444 23.9177 26.8546 25.0919C26.6988 27.1192 25.4284 28.3987 23.5507 28.554C22.724 28.6225 22.0242 28.4092 21.8631 27.4956C21.7073 26.6058 22.1562 26.0476 23.0621 25.9818C24.0894 25.9081 24.2347 25.2315 24.24 24.4311C24.2479 22.3776 24.2505 20.324 24.2505 18.2678C24.2505 17.3727 24.38 16.5276 25.5129 16.496C26.7146 16.4617 26.9127 17.3069 26.9048 18.2757C26.8968 19.3683 26.9048 20.4609 26.9048 21.5535Z" fill="#CCEEDC"/>
    <path d="M17.405 17.628C17.405 18.1519 17.405 20.2713 17.4076 20.9058C17.3575 21.6772 16.9164 22.1195 16.1347 22.1116C15.4137 22.1037 14.9673 21.6693 14.9383 20.969C14.9515 19.8465 14.9515 18.6916 14.9515 17.5622C14.9964 16.8777 15.4665 16.4564 16.2033 16.4854C16.9217 16.5143 17.3469 16.9224 17.405 17.628Z" fill="#CCEEDC"/>
    <path d="M34.0883 17.6465C34.0883 17.6465 34.0883 20.4029 34.0883 20.919C34.0223 21.6825 33.5759 22.1301 32.7968 22.1117C32.0785 22.0932 31.648 21.6457 31.6189 20.9506C31.611 19.8208 31.611 18.8233 31.611 17.6755C31.6348 16.9725 32.0468 16.5355 32.7678 16.4934C33.5627 16.446 34.0064 16.8935 34.0883 17.6465Z" fill="#CCEEDC"/>
  </svg>